<svg width="84" height="32" viewBox="0 0 84 32" fill="none" xmlns="http://www.w3.org/2000/svg">
<g opacity="0.9" clip-path="url(#clip0_15_2289)">
<path d="M38.5088 28.1905H40.6963V19.9391H38.5088V28.1905ZM38.5088 18.6523H40.6963V16.6899H38.5088V18.6523Z" fill="#D1D5DB"/>
<path d="M42.1055 30.8927H44.293V27.2576H44.3252C44.7916 27.9653 45.5476 28.4318 46.7057 28.4318C48.8289 28.4318 50.2765 26.7429 50.2765 24.0728C50.2765 21.4992 48.8771 19.7139 46.6896 19.7139C45.5637 19.7139 44.7916 20.2447 44.2608 20.9684H44.2126V19.9391H42.1055V30.8927ZM46.2393 26.6142C44.9364 26.6142 44.2447 25.6331 44.2447 24.1371C44.2447 22.6574 44.7916 21.4831 46.1588 21.4831C47.5099 21.4831 48.0568 22.5769 48.0568 24.1371C48.0568 25.6974 47.3491 26.6142 46.2393 26.6142Z" fill="#D1D5DB"/>
<path d="M54.6407 28.4318C56.6995 28.4318 58.1149 27.4345 58.1149 25.7778C58.1149 23.8476 56.5869 23.4616 55.2036 23.1721C54.0294 22.9308 52.9356 22.8664 52.9356 22.1587C52.9356 21.5636 53.4986 21.2419 54.3512 21.2419C55.284 21.2419 55.847 21.5636 55.9435 22.4483H57.922C57.7611 20.7915 56.5547 19.7139 54.3833 19.7139C52.5014 19.7139 51.0216 20.5663 51.0216 22.3517C51.0216 24.1532 52.4692 24.5554 53.949 24.8449C55.0749 25.07 56.1204 25.1505 56.1204 25.9387C56.1204 26.5177 55.5736 26.8876 54.6084 26.8876C53.6273 26.8876 52.9517 26.4695 52.807 25.5204H50.7803C50.909 27.2737 52.244 28.4318 54.6407 28.4318Z" fill="#D1D5DB"/>
<path d="M66.42 28.1904V19.939H64.2325V24.7C64.2325 25.7938 63.6052 26.5658 62.5758 26.5658C61.6429 26.5658 61.2086 26.035 61.2086 25.0699V19.939H59.0371V25.4399C59.0371 27.2414 60.0666 28.4156 61.9002 28.4156C63.0583 28.4156 63.7017 27.9813 64.2647 27.2253H64.313V28.1904H66.42Z" fill="#D1D5DB"/>
<path d="M67.835 28.1905H70.0226V23.3972C70.0226 22.3035 70.6177 21.5958 71.5023 21.5958C72.3066 21.5958 72.773 22.0783 72.773 23.0112V28.1905H74.9606V23.3972C74.9606 22.3035 75.5235 21.5958 76.4403 21.5958C77.2446 21.5958 77.711 22.0783 77.711 23.0112V28.1905H79.8986V22.6413C79.8986 20.8398 78.9174 19.7139 77.1802 19.7139C76.1347 19.7139 75.2662 20.2607 74.7032 21.1615H74.671C74.2689 20.2929 73.4325 19.7139 72.387 19.7139C71.245 19.7139 70.4407 20.2929 69.9903 21.0489H69.9421V19.9391H67.835V28.1905Z" fill="#D1D5DB"/>
<path d="M38.541 14.0576H40.7285V2.55701H38.541V14.0576Z" fill="#D1D5DB"/>
<path d="M46.0773 14.299C48.6348 14.299 50.388 12.401 50.388 9.94001C50.388 7.47905 48.6348 5.58105 46.0773 5.58105C43.5199 5.58105 41.7666 7.47905 41.7666 9.94001C41.7666 12.401 43.5199 14.299 46.0773 14.299ZM46.0773 12.6262C44.7262 12.6262 43.9864 11.5485 43.9864 9.94001C43.9864 8.33153 44.7262 7.23778 46.0773 7.23778C47.4124 7.23778 48.1684 8.33153 48.1684 9.94001C48.1684 11.5485 47.4124 12.6262 46.0773 12.6262Z" fill="#D1D5DB"/>
<path d="M55.0402 16.8726C56.2627 16.8726 57.3243 16.583 58.0159 15.9396C58.6271 15.3766 58.9971 14.5885 58.9971 13.4304V5.80624H56.89V6.67481H56.8578C56.3592 5.98317 55.6032 5.58105 54.5737 5.58105C52.4828 5.58105 51.0029 7.15736 51.0029 9.61833C51.0029 12.1114 52.8045 13.559 54.6381 13.559C55.6837 13.559 56.3109 13.1409 56.7935 12.594H56.8417V13.4947C56.8417 14.6206 56.2466 15.2158 55.0081 15.2158C53.9947 15.2158 53.5283 14.8137 53.3513 14.299H51.1799C51.4051 15.9074 52.7884 16.8726 55.0402 16.8726ZM55.0081 11.8058C53.8821 11.8058 53.1422 10.9855 53.1422 9.58617C53.1422 8.20289 53.8821 7.33429 54.992 7.33429C56.3109 7.33429 56.9543 8.36369 56.9543 9.57009C56.9543 10.7925 56.3913 11.8058 55.0081 11.8058Z" fill="#D1D5DB"/>
<path d="M64.3137 14.299C66.8711 14.299 68.6244 12.401 68.6244 9.94001C68.6244 7.47905 66.8711 5.58105 64.3137 5.58105C61.7562 5.58105 60.0029 7.47905 60.0029 9.94001C60.0029 12.401 61.7562 14.299 64.3137 14.299ZM64.3137 12.6262C62.9625 12.6262 62.2226 11.5485 62.2226 9.94001C62.2226 8.33153 62.9625 7.23778 64.3137 7.23778C65.6487 7.23778 66.4047 8.33153 66.4047 9.94001C66.4047 11.5485 65.6487 12.6262 64.3137 12.6262Z" fill="#D1D5DB"/>
<path d="M70.542 10.9049H79.9997V9.02295H70.542V10.9049Z" fill="#D1D5DB"/>
<path d="M80.6934 18.5374C80.6934 18.1673 80.9934 17.8672 81.3638 17.8672H82.7038C83.0742 17.8672 83.3742 18.1673 83.3742 18.5374C83.3742 18.9075 83.0742 19.2076 82.7038 19.2076H81.3638C80.9934 19.2076 80.6934 18.9075 80.6934 18.5374Z" fill="#D1D5DB"/>
<path fill-rule="evenodd" clip-rule="evenodd" d="M16.417 0C25.2535 0 32.417 7.16344 32.417 16C32.417 24.8366 25.2535 32 16.417 32C7.58044 32 0.416992 24.8366 0.416992 16C0.416992 7.16344 7.58044 0 16.417 0ZM15.8387 1.19727C14.0134 1.45415 12.2753 2.92086 10.9261 5.37392C10.5347 6.08546 10.1816 6.87157 9.87387 7.72035C11.7084 7.25934 13.7237 6.98754 15.8387 6.9455V1.19727ZM8.52163 8.10464C8.90427 6.90366 9.37243 5.79872 9.91267 4.81652C10.5815 3.60047 11.3752 2.55036 12.2695 1.74382C7.40643 3.15618 3.57317 6.98943 2.16081 11.8526C2.96735 10.9582 4.01747 10.1645 5.23352 9.49568C6.21572 8.95544 7.32065 8.48728 8.52163 8.10464ZM8.13731 9.45688C7.67632 11.2914 7.40453 13.3067 7.36249 15.4217H1.61426C1.87115 13.5963 3.33786 11.8582 5.79092 10.5091C6.50246 10.1178 7.28856 9.76464 8.13731 9.45688ZM8.51939 15.4217C8.56715 13.1136 8.89939 10.9467 9.44915 9.03216C11.3637 8.4824 13.5307 8.15008 15.8387 8.10232V10.6006C14.9776 12.805 13.2215 14.561 11.0171 15.4217H8.51939ZM7.36249 16.5783H1.61426C1.87115 18.4037 3.33786 20.1417 5.79092 21.4909C6.50246 21.8822 7.28856 22.2354 8.13731 22.5431C7.67632 20.7086 7.40453 18.6933 7.36249 16.5783ZM9.44915 22.9678C8.89939 21.0533 8.56715 18.8864 8.51939 16.5783H11.0171C13.2215 17.439 14.9777 19.195 15.8387 21.3994V23.8977C13.5307 23.8499 11.3637 23.5176 9.44915 22.9678ZM8.52163 23.8954C7.32065 23.5127 6.21572 23.0446 5.23352 22.5043C4.01747 21.8355 2.96735 21.0418 2.16081 20.1474C3.57317 25.0106 7.40643 28.8438 12.2695 30.2562C11.3752 29.4496 10.5815 28.3995 9.91267 27.1834C9.37243 26.2013 8.90427 25.0963 8.52163 23.8954ZM15.8387 30.8027C14.0134 30.5458 12.2753 29.0791 10.9261 26.6261C10.5347 25.9146 10.1816 25.1284 9.87387 24.2797C11.7084 24.7406 13.7237 25.0125 15.8387 25.0545V30.8027ZM20.5644 30.2562C21.4587 29.4496 22.2525 28.3995 22.9214 27.1834C23.4615 26.2013 23.9297 25.0963 24.3123 23.8954C25.5133 23.5127 26.6183 23.0446 27.6005 22.5043C28.8165 21.8355 29.8667 21.0418 30.6731 20.1474C29.2608 25.0106 25.4275 28.8438 20.5644 30.2562ZM22.9601 24.2797C22.6523 25.1284 22.2992 25.9146 21.9079 26.6261C20.5587 29.0791 18.8207 30.5458 16.9953 30.8027V25.0545C19.1103 25.0125 21.1255 24.7406 22.9601 24.2797ZM24.6967 22.5431C25.5454 22.2354 26.3315 21.8822 27.0431 21.4909C29.4961 20.1417 30.9628 18.4037 31.2197 16.5783H25.4715C25.4295 18.6933 25.1576 20.7086 24.6967 22.5431ZM24.3147 16.5783C24.2669 18.8864 23.9346 21.0533 23.3848 22.9678C21.4703 23.5176 19.3034 23.8499 16.9953 23.8977V21.4012C17.856 19.1961 19.6126 17.4393 21.8176 16.5783H24.3147ZM25.4715 15.4217H31.2197C30.9628 13.5963 29.4961 11.8582 27.0431 10.5091C26.3315 10.1178 25.5454 9.76464 24.6967 9.45688C25.1576 11.2914 25.4295 13.3067 25.4715 15.4217ZM23.3848 9.03216C23.9346 10.9467 24.2669 13.1136 24.3147 15.4217H21.8176C19.6126 14.5607 17.856 12.8039 16.9953 10.5988V8.10232C19.3034 8.15008 21.4703 8.4824 23.3848 9.03216ZM24.3123 8.10464C25.5133 8.48728 26.6183 8.95544 27.6005 9.49568C28.8165 10.1645 29.8667 10.9582 30.6731 11.8526C29.2608 6.98943 25.4275 3.15618 20.5644 1.74382C21.4587 2.55036 22.2525 3.60047 22.9214 4.81652C23.4615 5.79872 23.9297 6.90366 24.3123 8.10464ZM16.9953 1.19727C18.8207 1.45415 20.5587 2.92086 21.9079 5.37392C22.2992 6.08547 22.6523 6.87157 22.9601 7.72035C21.1255 7.25934 19.1103 6.98754 16.9953 6.9455V1.19727Z" fill="#D1D5DB"/>
</g>
<defs>
<clipPath id="clip0_15_2289">
<rect width="84" height="32" fill="white"/>
</clipPath>
</defs>
</svg>
